<svg width="48" height="48" viewBox="0 0 48 48" fill="none" xmlns="http://www.w3.org/2000/svg">
<path d="M38.872 15.507C38.521 14.527 37.323 11.94 33.604 8.29399C29.663 4.42999 26.934 3.34199 26.084 3.07599C24.3898 3.02403 22.695 2.99869 21 2.99999C14.736 2.99999 10.434 3.31999 7.752 3.62699C5.551 3.87899 3.902 5.52999 3.66 7.73199C3.34 10.622 3 15.473 3 23C3 30.527 3.341 35.378 3.66 38.268C3.902 40.47 5.551 42.121 7.752 42.373C9.65 42.59 12.359 42.813 16 42.926" stroke="#283622" stroke-width="3" stroke-linecap="round" stroke-linejoin="round"/>
<path d="M38.886 15.958C36.799 16.269 33.045 16.03 30.196 15.767C29.1101 15.67 28.0924 15.1957 27.3198 14.4264C26.5472 13.6572 26.0686 12.6415 25.967 11.556C25.699 8.75399 25.461 5.08999 25.787 3.06799" stroke="#283622" stroke-width="3" stroke-linecap="round" stroke-linejoin="round"/>
<path d="M41 34.258C41 34.258 40.527 32.15 37.688 29.312C34.85 26.473 32.742 26 32.742 26" stroke="#283622" stroke-width="3" stroke-linecap="round" stroke-linejoin="round"/>
<path d="M10 13L14 17L19 10" stroke="#283622" stroke-width="3" stroke-linecap="round" stroke-linejoin="round"/>
<path d="M10 24L14 28L19 21" stroke="#283622" stroke-width="3" stroke-linecap="round" stroke-linejoin="round"/>
<path d="M43.665 31.592C45.119 30.139 45.675 28.015 44.459 26.357C43.9218 25.631 43.3301 24.947 42.689 24.311C41.949 23.571 41.259 22.993 40.642 22.541C38.985 21.325 36.861 21.881 35.407 23.334L23.067 35.674C22.524 36.218 22.152 36.907 22.088 37.674C22.001 38.715 21.937 40.484 22.105 43.102C22.1349 43.5677 22.3334 44.0066 22.6634 44.3366C22.9934 44.6665 23.4323 44.8651 23.898 44.895C26.515 45.063 28.285 44.999 29.326 44.911C30.092 44.847 30.782 44.476 31.326 43.931L43.665 31.592Z" stroke="#283622" stroke-width="3" stroke-linecap="round" stroke-linejoin="round"/>
</svg>
