<svg width="48" height="48" viewBox="0 0 48 48" fill="none" xmlns="http://www.w3.org/2000/svg">
<path d="M34.306 24.942C33.349 20.779 28.051 19.078 24.751 21.868C24.49 22.088 24.257 22.341 24.001 22.593C23.743 22.34 23.511 22.087 23.249 21.868C19.949 19.078 14.651 20.779 13.694 24.942C12.374 30.329 17.929 34.279 21.729 36.936C23.09 37.886 24.91 37.886 26.271 36.936C30.071 34.279 35.626 30.329 34.306 24.942Z" stroke="white" stroke-width="3" stroke-linecap="round" stroke-linejoin="round"/>
<path d="M11.003 8.56189C10.0171 8.6561 9.0329 8.76811 8.051 8.89789C5.852 9.19089 4.174 10.8459 3.859 13.0419C3.451 15.8859 3 20.4109 3 26.4999C3 32.5899 3.451 37.1139 3.859 39.9579C4.174 42.1539 5.852 43.8079 8.051 44.1019C11.181 44.5189 16.431 44.9999 24 44.9999C31.568 44.9999 36.818 44.5189 39.949 44.1019C42.148 43.8079 43.826 42.1539 44.141 39.9579C44.549 37.1139 45 32.5889 45 26.4999C45 20.4099 44.549 15.8859 44.141 13.0419C43.826 10.8459 42.148 9.19189 39.949 8.89789C38.9671 8.76812 37.9829 8.6561 36.997 8.56189" stroke="white" stroke-width="3" stroke-linecap="round" stroke-linejoin="round"/>
<path d="M29 8.07389C27.3338 8.02382 25.6669 7.99915 24 7.99989C22.204 7.99989 20.538 8.02689 19 8.07389" stroke="white" stroke-width="3" stroke-linecap="round" stroke-linejoin="round"/>
<path d="M29.013 9.26994C29.056 11.3499 30.422 12.9639 32.502 12.9959C32.834 13.001 33.166 13.001 33.498 12.9959C35.578 12.9639 36.944 11.3499 36.987 9.26994C37.0045 8.42337 37.0045 7.57652 36.987 6.72994C36.944 4.64994 35.578 3.03594 33.498 3.00394C33.166 2.99885 32.834 2.99885 32.502 3.00394C30.422 3.03594 29.056 4.64994 29.013 6.72994C28.9954 7.57652 28.9954 8.42337 29.013 9.26994Z" stroke="white" stroke-width="3" stroke-linecap="round" stroke-linejoin="round"/>
<path d="M11.013 9.26994C11.056 11.3499 12.422 12.9639 14.502 12.9959C14.834 13.001 15.166 13.001 15.498 12.9959C17.578 12.9639 18.944 11.3499 18.987 9.26994C19.0045 8.42337 19.0045 7.57652 18.987 6.72994C18.944 4.64994 17.578 3.03594 15.498 3.00394C15.166 2.99885 14.834 2.99885 14.502 3.00394C12.422 3.03594 11.056 4.64994 11.013 6.72994C10.9954 7.57652 10.9954 8.42337 11.013 9.26994Z" stroke="white" stroke-width="3" stroke-linecap="round" stroke-linejoin="round"/>
</svg>
