<svg width="48" height="48" viewBox="0 0 48 48" fill="none" xmlns="http://www.w3.org/2000/svg">
<path d="M13.525 4.018C15.457 3.864 17.334 4.687 18.602 6.168L20.644 8.553C21.0358 9.0125 21.5225 9.38166 22.0706 9.63508C22.6187 9.8885 23.2152 10.0202 23.819 10.021H38.763C42.042 10.021 44.772 12.564 44.881 15.877C44.954 18.068 45 20.693 45 23.825C45 31.82 44.699 36.508 44.427 39.111C44.235 40.949 43.024 42.383 41.232 42.747C38.425 43.318 33.155 44 24 44C14.845 44 9.575 43.318 6.768 42.747C4.976 42.383 3.765 40.949 3.573 39.111C3.3 36.508 3 31.82 3 23.825C3 15.83 3.301 11.142 3.573 8.539C3.765 6.7 4.977 5.266 6.77 4.902C8.259 4.599 10.44 4.265 13.525 4.018Z" stroke="#283622" stroke-width="3" stroke-linecap="round" stroke-linejoin="round"/>
</svg>
