<svg width="48" height="48" viewBox="0 0 48 48" fill="none" xmlns="http://www.w3.org/2000/svg">
<path d="M41.887 16.435C43.825 14.497 44.563 11.663 42.909 9.47504C42.2805 8.65055 41.5959 7.87037 40.86 7.14004C40.1294 6.40413 39.3489 5.71951 38.524 5.09104C36.337 3.43804 33.503 4.17504 31.564 6.11404L16.127 21.55C15.583 22.094 15.21 22.783 15.137 23.549C15.011 24.848 14.896 27.274 15.159 31.041C15.1921 31.5072 15.3922 31.9457 15.7227 32.276C16.0533 32.6063 16.4919 32.8063 16.958 32.839C20.724 33.103 23.151 32.987 24.45 32.862C25.215 32.788 25.905 32.416 26.449 31.872L41.887 16.435Z" stroke="#283622" stroke-width="3" stroke-linecap="round" stroke-linejoin="round"/>
<path d="M39.547 18.774C38.976 17.509 37.739 15.364 35.187 12.812C32.636 10.26 30.49 9.02403 29.225 8.45203" stroke="#283622" stroke-width="3" stroke-linecap="round" stroke-linejoin="round"/>
<path d="M42.993 23C42.998 23.647 43 24.313 43 25C43 31.862 42.748 36.706 42.503 39.792C42.3 42.348 40.347 44.3 37.792 44.502C34.706 44.748 29.862 45 23 45C16.138 45 11.294 44.748 8.208 44.503C5.652 44.3 3.7 42.347 3.498 39.792C3.251 36.706 3 31.862 3 25C3 18.138 3.252 13.294 3.497 10.208C3.7 7.652 5.652 5.7 8.208 5.498C11.294 5.251 16.138 5 23 5C23.687 5 24.353 5.003 25 5.007" stroke="#283622" stroke-width="3" stroke-linecap="round" stroke-linejoin="round"/>
</svg>
