<svg width="48" height="48" viewBox="0 0 48 48" fill="none" xmlns="http://www.w3.org/2000/svg">
<path d="M6.18201 15.842C7.06901 29.657 7.91801 36.844 8.42201 40.265C8.67801 41.995 9.81401 43.405 11.515 43.813C13.83 44.37 17.817 45 24.002 45C30.187 45 34.173 44.37 36.489 43.814C38.189 43.406 39.325 41.996 39.581 40.266C40.086 36.844 40.934 29.657 41.821 15.839" stroke="#283622" stroke-width="3" stroke-linecap="round" stroke-linejoin="round"/>
<path d="M31.036 7.176C34.596 7.242 37.37 7.35 39.358 7.451C41.748 7.571 43.968 8.844 44.636 11.142C44.736 11.487 44.83 11.852 44.912 12.239C45.306 14.079 43.929 15.66 42.054 15.819C39.034 16.074 33.507 16.364 23.977 16.364C14.448 16.364 8.91999 16.074 5.90099 15.819C4.02499 15.661 2.63999 14.069 3.12499 12.251C3.29999 11.596 3.51499 10.998 3.74099 10.467C4.55399 8.564 6.51099 7.582 8.57699 7.468C10.485 7.364 13.262 7.246 16.964 7.176C17.5117 5.93366 18.409 4.87742 19.5464 4.13596C20.6838 3.3945 22.0123 2.99982 23.37 3H24.632C25.9896 3.00002 27.3178 3.39479 28.455 4.13623C29.5922 4.87768 30.4893 5.93381 31.037 7.176H31.036Z" stroke="#283622" stroke-width="3" stroke-linecap="round" stroke-linejoin="round"/>
<path d="M18 25L19 35" stroke="#283622" stroke-width="3" stroke-linecap="round" stroke-linejoin="round"/>
<path d="M30 25L29 35" stroke="#283622" stroke-width="3" stroke-linecap="round" stroke-linejoin="round"/>
</svg>
